<svg xmlns="http://www.w3.org/2000/svg" viewBox="0 0 129.22 129.17"><defs><style>.cls-1{fill:#400a74;}</style></defs><g id="Layer_2" data-name="Layer 2"><g id="Layer_1-2" data-name="Layer 1"><path class="cls-1" d="M115.18,81.9h0a4.56,4.56,0,0,0-6.43,0l-1.81,1.8-.49-3.21a6.49,6.49,0,0,0,1.15-.91l6.89-6.87a4.53,4.53,0,0,0,0-6.43L111,62.77a4.53,4.53,0,0,0-3.21-1.35h0a4.54,4.54,0,0,0-3.21,1.32l-.71.7L101.6,48.63,117,34.42c5.71-5.13,12-14.36,12.18-22.49a11.61,11.61,0,0,0-3.16-8.73A11.53,11.53,0,0,0,117.34,0C109.2.2,100,6.4,94.82,12.08L80.55,27.48,65.74,25.16l.69-.69a4.55,4.55,0,0,0,0-6.44L63,14.53a4.56,4.56,0,0,0-6.45,0l-6.89,6.87a7.21,7.21,0,0,0-.92,1.13L45.5,22l1.79-1.79a4.55,4.55,0,0,0,0-6.43L43.8,10.24a4.58,4.58,0,0,0-6.44,0l-6.89,6.87A6.88,6.88,0,0,0,29,19.42L15,17.23a16.19,16.19,0,0,0-13.6,4.43,4.59,4.59,0,0,0,1,7.27l50.9,28-15.72,17c-1.05,1.15-2.17,2.48-3.33,4L17,76.4A12.41,12.41,0,0,0,7.18,80L5.63,81.53a4.16,4.16,0,0,0,1.1,6.65l16.6,8.19-.67,2.25a5.35,5.35,0,0,0,.59,4l-1.88,1.88a2.07,2.07,0,0,0,0,2.94,2.05,2.05,0,0,0,1.47.62h0a2.06,2.06,0,0,0,1.47-.61l1.89-1.88a5.3,5.3,0,0,0,4.06.61l.85-.25,1.41-.41,8.11,16.61a4.06,4.06,0,0,0,3,2.28,4.19,4.19,0,0,0,3.65-1.15l1.53-1.53A12.48,12.48,0,0,0,52.43,112L51.1,94.75c1.46-1.14,2.78-2.24,3.94-3.29L72.1,75.77l27.76,51a4.52,4.52,0,0,0,3.39,2.35,3.85,3.85,0,0,0,.67,0,4.48,4.48,0,0,0,3.22-1.34,15.88,15.88,0,0,0,4.45-13.59l-2.13-14a6.79,6.79,0,0,0,2.33-1.51l6.89-6.86a4.55,4.55,0,0,0,0-6.45ZM33.36,20.1l0,0,6.89-6.87a.43.43,0,0,1,.57,0l3.51,3.54a.39.39,0,0,1,0,.55l-3.94,3.94ZM60,17.46,63.49,21a.39.39,0,0,1,0,.55l-2.85,2.85-7-1.1,5.84-5.82A.4.4,0,0,1,60,17.46Zm-23.58,78a2.08,2.08,0,0,0-1.47-3.55h0a2.06,2.06,0,0,0-1.47.6l-6.64,6.62c.86-3.08,4-11.64,13.79-22.46L97.89,14.89c4.72-5.21,13-10.57,19.55-10.72a7.49,7.49,0,0,1,5.66,2,7.57,7.57,0,0,1,2,5.68c-.19,6.6-5.58,14.82-10.82,19.53l-61.95,57c-10.83,9.77-19.47,12.86-22.52,13.71Zm-32-70.15A.41.41,0,0,1,4.17,25a.39.39,0,0,1,.12-.36,11.93,11.93,0,0,1,10-3.27l62.82,9.81-21,22.59L4.38,25.29ZM16.62,80.55l14.66,1.18a71.63,71.63,0,0,0-6.46,10.73l-16.23-8,1.53-1.52A8.26,8.26,0,0,1,16.62,80.55ZM47.16,97.69l1.12,14.65a8.34,8.34,0,0,1-2.41,6.5l-1.5,1.53L36.42,104.1A71.94,71.94,0,0,0,47.16,97.69Zm60.89-32,3.5,3.51a.39.39,0,0,1,0,.56l-5.85,5.82-1.07-7,2.86-2.84A.39.39,0,0,1,108.05,65.7Zm.74,30.15-1.07-7,4-4a.4.4,0,0,1,.56,0l3.5,3.51a.4.4,0,0,1,0,.57l-6.89,6.87ZM97.91,52l9.57,62.85a11.7,11.7,0,0,1-3.29,10,.42.42,0,0,1-.37.12.38.38,0,0,1-.3-.22L75.25,72.87Z"/><path class="cls-1" d="M106.63,17.23a2.07,2.07,0,0,0,1.49-.57c1.51-1.44,3.61.64,3.7.72s2.15,2.2.71,3.7a2.08,2.08,0,0,0,3,2.88c2.8-2.93,1.73-7-.77-9.51s-6.57-3.6-9.51-.81a2.08,2.08,0,0,0,1.37,3.59Z"/></g></g></svg>