<svg xmlns="http://www.w3.org/2000/svg" viewBox="0 0 127.72 127.73"><defs><style>.cls-1{fill:#400a74;}</style></defs><g id="Layer_2" data-name="Layer 2"><g id="Layer_1-2" data-name="Layer 1"><path class="cls-1" d="M24.59,104.92l-.05,0-.2-.13,0,0a3.59,3.59,0,0,1-.5-.37l-.05,0-.1-.1h0l0,0s-.06,0-.09-.08l0,0s-.07-.06-.1-.1-.13-.14-.18-.21l0,0a3.28,3.28,0,0,1-.2-.31,1.91,1.91,0,0,1-.26-.41s0-.05,0-.07L10.41,115.28l2,2L24.75,105A.52.52,0,0,1,24.59,104.92Z"/><path class="cls-1" d="M29,88.59h0L12.44,105.2l2,2,8.8-8.81Q26.12,93.48,29,88.59Z"/><polygon class="cls-1" points="12.43 109.23 10.41 107.22 8.39 109.23 10.41 111.25 12.43 109.23"/><polygon class="cls-1" points="6.38 119.32 8.39 121.33 10.41 119.32 8.39 117.3 6.38 119.32"/><path class="cls-1" d="M87.43,29.78a10.51,10.51,0,1,0,7.44,3.07,10.51,10.51,0,0,0-7.44-3.07Zm4.43,6.08a6.24,6.24,0,0,1,0,8.82l-.05,0a6.21,6.21,0,0,1-8.8.05l0-.05a6.24,6.24,0,0,1,0-8.82l0,0a6.24,6.24,0,0,1,8.87,0Z"/><path class="cls-1" d="M125.59,0h-.07l-.33,0a84.47,84.47,0,0,0-32.4,6.6l-.17.06-.28.1a1.88,1.88,0,0,0-.51.31c-.81.38-1.69.84-2.64,1.35L89,8.54l-.3.17-1,.56a114.5,114.5,0,0,0-35,29.1,21,21,0,0,0-5.59-1.56h0c-7.18-.88-15,1.72-22.25,6.8C15.19,50.38,6.23,61.63.17,75.82a2.13,2.13,0,0,0,3.26,2.52C12.21,71.53,19.05,67.85,23.82,67a9.19,9.19,0,0,1,5.74.51,9,9,0,0,1,3.53,3.29c-.27.64-.61,1.28-.87,1.92A2.11,2.11,0,0,0,32.68,75l4.58,4.57c-4,6-8.06,12.8-12.49,20.44,0,0,0,0,0,0l-.05.09a.14.14,0,0,0,0,.06l0,0a.87.87,0,0,0-.07.17l0,0s0,.1,0,.16a1.18,1.18,0,0,0,0,.2.62.62,0,0,0,0,.13.22.22,0,0,0,0,.08v0a1.48,1.48,0,0,0,0,.21.91.91,0,0,0,0,.17v0a1.17,1.17,0,0,0,.05.2,1.07,1.07,0,0,0,.07.19l.06.16.09.17h0l0,.05a1.13,1.13,0,0,0,.1.13l0,0,.12.12.11.11,0,0,0,0,.14.1,0,0,.15.1.19.1.1,0,.09,0h0l.17,0,.15,0h.31a2,2,0,0,0,.42,0l.2,0,.21-.07.23-.12.13-.08c7.6-4.41,14.39-8.49,20.35-12.45l4.42,4.42a2.12,2.12,0,0,0,2.32.46c.62-.25,1.25-.59,1.88-.86,3.42,2.25,4.64,4.87,3.88,9.33-.82,4.82-4.44,11.69-11.25,20.47a2.12,2.12,0,0,0,.38,3,2.15,2.15,0,0,0,2.14.28c14.19-6.06,25.44-15,32.21-24.71,6.47-9.24,8.83-19.35,5.2-27.93a114,114,0,0,0,29-34.31c.3-.52.48-.86.8-1.42.67-1.17,1.25-2.26,1.74-3.28a2.21,2.21,0,0,0,.18-.34s0,0,0,0,.11-.19.14-.27a1.69,1.69,0,0,0,.14-.5,85.21,85.21,0,0,0,6.38-32.65A2.13,2.13,0,0,0,125.59,0ZM31.39,63.65a13.61,13.61,0,0,0-8.32-.85c-4.14.74-9,3.38-14.43,6.87C14,60.12,20.38,52,27.31,47.09a33.61,33.61,0,0,1,13.1-5.84,11.42,11.42,0,0,1,2.38-.2,23.1,23.1,0,0,1,6.66,1.32c-.7,1-1.37,2-2.06,2.93l-.15.23C45.58,47.91,44,50.38,42.39,53c-1.32,2.13-2.53,4.27-3.71,6.43l-.62,1.15Q36.35,63.72,34.82,67C33.73,65.8,32.81,64.32,31.39,63.65Zm1.53,31.16c6.23-10.46,12-19.56,17.44-25.6,6.07-6.73,11.72-9.69,17.9-9.74-.06,6.17-3,11.82-9.75,17.88C52.46,82.79,43.37,88.57,32.92,94.81Zm47.72,5.6c-4.87,7-13.06,13.3-22.63,18.69,3.49-5.42,6.12-10.38,6.83-14.56.82-4.83-1.12-8.72-4.32-11.76,2.27-1,4.5-2.16,6.71-3.34l.32-.17c2-1.06,4-2.09,5.91-3.26a141,141,0,0,0,11.89-7.77C87.44,84.85,86.14,92.55,80.64,100.41ZM115.85,36.3h0a2.14,2.14,0,0,0-.2.32c-.36.72-.77,1.41-1.15,2.11s-.88,1.51-1.16,2.07a1.86,1.86,0,0,0-.1.25C99.6,64.67,76.3,81.56,54.48,90.8L51.7,88a100.41,100.41,0,0,0,9.65-7.47c8-7.2,12.54-14.86,11.53-23.59a2.36,2.36,0,0,0-.1-.46l0-.1a2.09,2.09,0,0,0-.91-1.12l-.16-.1a2.21,2.21,0,0,0-.86-.3v0c-8.74-1-16.4,3.53-23.61,11.53A103.56,103.56,0,0,0,39.72,76l-2.94-2.94C46,51.32,62.86,28.38,86.46,14.78l.27-.12c1.58-.8,4.26-2.3,6.08-3.24l23.67,23.71Zm2.38-5.88L97.44,9.64A79.59,79.59,0,0,1,123.23,4.5,81.11,81.11,0,0,1,118.23,30.42Z"/><polygon class="cls-1" points="14.45 119.32 16.46 121.33 18.48 119.32 16.46 117.3 14.45 119.32"/><path class="cls-1" d="M18.48,115.28l2,2L39,98.82c-3.12,1.88-6.41,3.81-9.83,5.8Z"/></g></g></svg>