<svg xmlns="http://www.w3.org/2000/svg" viewBox="0 0 127.72 101.89"><defs><style>.cls-1{fill:#400a74;}</style></defs><g id="Layer_2" data-name="Layer 2"><g id="Layer_1-2" data-name="Layer 1"><g id="Paper_Plane" data-name="Paper Plane"><path class="cls-1" d="M38.51,67.5a1.28,1.28,0,0,1-.83-.2L1.24,51.85A1.79,1.79,0,0,1,0,50a2.36,2.36,0,0,1,1.24-1.85L125,.17a1.91,1.91,0,0,1,2.47.82,1.9,1.9,0,0,1-.62,2.47L39.54,67.3A1.59,1.59,0,0,1,38.51,67.5ZM7,50.2,38.09,63.59,112.64,9.23Z"/><path class="cls-1" d="M49,101.89a2,2,0,0,1-1.86-1.44L36.45,66.06a2,2,0,0,1,.82-2.26L124.58.37a2.17,2.17,0,0,1,2.68.21,2.19,2.19,0,0,1,0,2.68L58.89,73.47l-8,27.18c0,.83-.82,1.24-1.85,1.24ZM40.77,66.47l8.44,27L55.39,72a1.07,1.07,0,0,1,.41-.82l52.72-53.95Z"/><path class="cls-1" d="M105.43,93a.75.75,0,0,1-.62-.21L56.63,74.3a2.21,2.21,0,0,1-1.24-1.44A1.68,1.68,0,0,1,56,71L124.17.78a2.2,2.2,0,0,1,2.47-.41,2,2,0,0,1,1,2.27l-20.18,89c-.21.62-.41,1-1,1.24C106.05,92.83,105.84,93,105.43,93ZM60.75,71.83l43.44,16.68L122.31,8.4Z"/><path class="cls-1" d="M49,101.89a1.24,1.24,0,0,1-.83-.21,2.08,2.08,0,0,1-1-2.26l8-27.59a2.08,2.08,0,0,1,1-1.24,2.2,2.2,0,0,1,1.64,0l9.27,3.5a1.84,1.84,0,0,1,1.23,1.24,2.18,2.18,0,0,1-.2,1.64l-17.3,23.89A2.18,2.18,0,0,1,49,101.89Zm9.47-27L54.16,89.74,63.63,77Z"/></g></g></g></svg>